<svg xmlns="http://www.w3.org/2000/svg" viewBox="0 0 24 24">
  <path d="M 4.9 19.3 Q 1.3 18.9 0.3 15.4 Q -0.5 12.1 2.5 9.9 Q 2.3 8 3.4 7.1 Q 4.6 6 6.2 6.7 Q 7.3 3.6 10.7 2.7 Q 14 2.1 15.9 3.7 Q 20 3 23.1 0.2 Q 23.8 -0.1 23.7 0.8 Q 22.6 4.3 15.8 5.5 L 15.8 6 Q 20 5.6 23 3.1 Q 23.6 3 23.5 3.7 Q 22.4 6.9 15.8 7.6 L 15.8 8.1 Q 20 8 22.2 6.2 Q 22.8 6.1 22.5 6.8 Q 21.3 9.4 15.8 9.5 L 15.8 10.1 Q 18.6 10.1 19.4 9.9 Q 22.2 12 21.8 15 Q 21.3 18.4 17.4 19.3 L 14.9 12 L 14.9 4.5 Q 14.7 3.7 14 3.75 L 8.1 5.75 Q 7.3 6 7.15 6.8 L 7.15 12.3 Q 5.5 12.1 4.7 13.3 Q 4 14.4 4.8 15.6 Q 5.7 16.7 7.3 16.3 Q 8.7 15.8 9.1 14.2 L 9.1 8.2 L 13 6.9 L 13 10.1 Q 10.9 10 10.3 11.8 Q 10 13.2 11.4 13.9 Q 13.2 14.6 14.2 13.4 Q 14.7 12.9 14.9 11.9 L 17.4 19.3 Z M 7.7 7 Q 7.8 6.6 8.2 6.4 L 14 4.45 Q 14.2 4.4 14.2 4.7 L 14.2 11.7 Q 14.1 13.3 12.5 13.5 Q 11.0 13.5 11 12.1 Q 11 11.3 11.9 10.9 Q 12.8 10.6 13.6 10.9 L 13.6 6.3 Q 13.6 6 13.2 6.2 L 8.6 7.7 Q 8.4 7.8 8.4 8 L 8.4 13.8 Q 8.3 15.4 6.6 15.75 Q 5.2 15.7 5.05 14.6 Q 4.8 13.7 5.8 13.1 Q 6.6 12.7 7.7 13 Z"
        fill="white"
        stroke="none"/>
</svg>